<svg xmlns="http://www.w3.org/2000/svg" viewBox="0 0 442.32 186.26"><defs><style>.cls-1{fill:#fff;opacity:0.48;isolation:isolate;}</style></defs><title>bottom left</title><g id="Layer_2" data-name="Layer 2"><g id="Layer_1-2" data-name="Layer 1"><g id="Layer_2-2" data-name="Layer 2"><path class="cls-1" d="M0,120.13c.5-13.61,4.1-27.72,12.4-37.25S29.93,69,41,67.65c17.5-4.33,33.5-14.48,50.3-21.66a114.84,114.84,0,0,1,37.1-8.91c10.4-.62,20.3,2.1,30.3,4.7,6-5,11.5-10.89,17.4-15.84,11.2-9.41,23.8-17.2,36.8-21.66,33.12-11.5,77.07-.54,91.21,41.65.5.09,1,.18,1.51.29,8.58,1.81,15.85,6.58,22.64,12.6A79.87,79.87,0,0,1,352,43.28c22.33-9.31,50.45-5.14,69.82,11.79,8.77,7.66,16.19,16,19.36,29.35,3.29,13.82-.93,28.58-7.27,40A113.75,113.75,0,0,1,405,158.86c-22.22,17.69-48.78,22.66-74.54,25.78-15.19,1.84-29.89,3-44.92-1.58-10.77-3.29-20.84-9.32-31.68-12.13a28.24,28.24,0,0,1-9.47-2.54c-16.12,8.11-34.07,12.23-50.89,10.9s-31.9-5.69-46.8-15.47A74,74,0,0,1,125.83,143c-11.1,3.34-21.7,8.79-32.4,14.11-16.7,8.29-32.9,13.74-51,15.47-10.3,1-22.9-6.56-30.1-15.35C5.13,148.1-.47,133.12,0,120.13Z"/></g></g></g></svg>