<svg xmlns="http://www.w3.org/2000/svg" viewBox="0 0 442.32 150.49"><defs><style>.cls-1{fill:#fff;opacity:0.48;isolation:isolate;}</style></defs><title>mean top_1</title><g id="Layer_2" data-name="Layer 2"><g id="Layer_1-2" data-name="Layer 1"><g id="Layer_2-2" data-name="Layer 2"><path class="cls-1" d="M442.28,97.06c-.5-11-4.1-22.4-12.4-30.1s-17.5-11.2-28.6-12.3c-17.5-3.5-33.5-11.7-50.3-17.5a137.81,137.81,0,0,0-37.1-7.2c-10.4-.5-20.3,1.7-30.3,3.8-6-4-11.5-8.8-17.4-12.8a127,127,0,0,0-36.8-17.5C196.26-5.83,152.31,3,138.18,37.11l-1.51.23c-8.58,1.46-15.85,5.31-22.64,10.18A83.67,83.67,0,0,0,90.32,35C68,27.45,39.87,30.82,20.5,44.49,11.73,50.68,4.32,57.43,1.14,68.21c-3.29,11.17.93,23.09,7.27,32.29a100.05,100.05,0,0,0,28.88,27.85c22.22,14.3,48.78,18.31,74.54,20.83,15.19,1.48,29.89,2.43,44.92-1.28,10.77-2.66,20.84-7.53,31.68-9.8a33.65,33.65,0,0,0,9.47-2.05c16.12,6.55,34.07,9.88,50.89,8.81s31.9-4.6,46.8-12.5a68.85,68.85,0,0,0,20.9-16.8c11.1,2.7,21.7,7.1,32.4,11.4,16.7,6.7,32.9,11.1,51,12.5,10.3.8,22.9-5.3,30.1-12.4C437.18,119.66,442.78,107.56,442.28,97.06Z"/></g></g></g></svg>