<svg xmlns="http://www.w3.org/2000/svg" viewBox="0 0 308.45 145.06"><defs><style>.cls-1{fill:#fff;opacity:0.45;isolation:isolate;}</style></defs><title>top right</title><g id="Layer_2" data-name="Layer 2"><g id="Layer_1-2" data-name="Layer 1"><g id="Layer_2-2" data-name="Layer 2"><path class="cls-1" d="M308.42,97.06c-.5-11-4.1-22.4-12.4-30.1s-17.5-11.2-28.6-12.3c-17.5-3.5-33.5-11.7-50.3-17.5A137.81,137.81,0,0,0,180,30c-10.4-.5-20.3,1.7-30.3,3.8-6-4-11.5-8.8-17.4-12.8a127,127,0,0,0-36.8-17.5c-35.3-9.9-82.9.8-93.6,40.7-9.3,34.6,16.8,65.7,44.2,82.8,19.8,12.4,45.4,19.4,68.8,17.9,16.7-1.1,31.9-4.6,46.8-12.5a68.85,68.85,0,0,0,20.9-16.8c11.1,2.7,21.7,7.1,32.4,11.4,16.7,6.7,32.9,11.1,51,12.5,10.3.8,22.9-5.3,30.1-12.4C303.32,119.66,308.92,107.56,308.42,97.06Z"/></g></g></g></svg>