<svg xmlns="http://www.w3.org/2000/svg" viewBox="0 0 318.78 101.99"><defs><style>.cls-1{fill:#fff;opacity:0.48;isolation:isolate;}</style></defs><title>pair_bottom</title><g id="Layer_2" data-name="Layer 2"><g id="Layer_1-2" data-name="Layer 1"><g id="Layer_2-2" data-name="Layer 2"><path class="cls-1" d="M.1,53.62c.79-7.19,3.82-14.51,10.08-19.21s13-6.6,21-6.85C43.92,26,55.74,21.32,68,18.23A107.67,107.67,0,0,1,95,15.09c7.49.11,14.52,2,21.63,3.78,4.47-2.37,8.61-5.28,13-7.65a95.55,95.55,0,0,1,27.12-9.91c24.16-4.68,55.4,3,64.24,25.94l1.08.22a40.93,40.93,0,0,1,15.87,7.64,62.37,62.37,0,0,1,17.52-7.22c16.34-4,36.42-.58,49.8,9.21,6.06,4.43,11.13,9.17,13,16.37,1.93,7.46-1.56,15.1-6.48,20.86a69.56,69.56,0,0,1-21.83,17c-16.52,8.43-35.77,9.93-54.37,10.48-11,.33-21.57.32-32.23-2.75-7.64-2.2-14.68-5.82-22.39-7.77a26.24,26.24,0,0,1-6.73-1.75,92.1,92.1,0,0,1-36.91,3.61c-12-1.43-22.75-4.37-33.15-10.19A49,49,0,0,1,89.79,71.1c-8.08,1.3-15.87,3.73-23.73,6.1a131.11,131.11,0,0,1-37.13,6c-7.43.09-16.25-4.45-21.15-9.41C2.89,68.65-.66,60.48.1,53.62Z"/></g></g></g></svg>