<svg xmlns="http://www.w3.org/2000/svg" viewBox="0 0 398.43 159.36"><defs><style>.cls-1{opacity:0.48;}.cls-2{fill:#fff;}</style></defs><title>pair_top</title><g id="Layer_2" data-name="Layer 2"><g id="Layer_1-2" data-name="Layer 1"><g id="Layer_2-2" data-name="Layer 2"><g class="cls-1"><path class="cls-2" d="M377,46.7c-18.69-11.92-40.06-6-60.47-4.75a132.66,132.66,0,0,1-13.75.19c-1.89-.08-3.91-.49-5.84-.54-.82-.16-1.64-.32-2.45-.51-2.15-.5-4.21-1.21-6.32-1.82-.54-.23-1.1-.46-1.55-.69a76.76,76.76,0,0,1-10.11-6.39l-.05,0c-1.44-1.18-2.88-2.34-4.3-3.53-3.11-2.58-6.19-5.19-9.36-7.69-9-7.08-17.47-12.86-28.16-17C214-4.2,190.92,1.12,172.61,12.55c-8.91,5.56-17.09,12.38-25.05,19.21a21,21,0,0,0-6.33,10.08c-16.62-13.24-35.37-22-56.69-24.58C63.41,14.67,43.31,20.91,26.78,34,11.32,46.26,1.95,65,.21,84.5c-1.61,18.08,5.93,34.49,18,47-.18-.31-.38-.61-.55-.93.17.32.37.62.55.93q1.43,1.48,2.94,2.89l79.72,23.33c1.56,0,3.07-.07,4.55-.11-.34-.51-.65-1-1-1.53,15.3-.61,30.61-1.79,45.91-2.18,21-.53,42-.48,62.94.51,21.25,1,42.37,4,63.62,4.82a180.56,180.56,0,0,0,65.45-9.55c19.8-6.76,40.9-17.36,50.32-37.24C403.5,89.59,399.47,61,377,46.7Z"/></g></g></g></g></svg>